<svg xmlns="http://www.w3.org/2000/svg" width="169" height="136.705" viewBox="0 0 169 136.705">
  <g id="Component_13_336" data-name="Component 13 – 336" transform="translate(169) rotate(90)">
    <g id="Group_4" data-name="Group 4" transform="translate(-3115.432 -2082)">
      <g id="Union_4" data-name="Union 4" transform="translate(3115.432 2082)" fill="none">
        <path d="M68.352,168.943l-.068.057L0,112.222,21.269,94.537l32.3,26.856V0h30V121.035l31.868-26.5,21.27,17.685L68.421,169Z" stroke="none"/>
        <path d="M 68.41986083984375 166.3996124267578 L 133.5772247314453 112.2221145629883 L 115.4358062744141 97.13827514648438 L 81.56770324707031 125.2990798950195 L 81.56770324707031 1.999992370605469 L 55.5679931640625 1.999992370605469 L 55.5679931640625 125.6575393676758 L 21.26880836486816 97.13829803466797 L 3.128189086914062 112.2220840454102 L 68.27742767333984 166.392822265625 L 68.34413146972656 166.3367156982422 L 68.41986083984375 166.3996124267578 M 68.420654296875 169 L 68.35228729248047 168.9432220458984 L 68.2847900390625 169 L -5.104758656671038e-06 112.2220840454102 L 21.26879119873047 94.53723907470703 L 53.5679931640625 121.3935165405273 L 53.5679931640625 -7.62939453125e-06 L 83.56770324707031 -7.62939453125e-06 L 83.56770324707031 121.0350570678711 L 115.435791015625 94.53723907470703 L 136.7054443359375 112.2220840454102 L 68.420654296875 169 Z" stroke="none" fill="#fff"/>
      </g>
    </g>
  </g>
</svg>
