<svg xmlns="http://www.w3.org/2000/svg" xmlns:xlink="http://www.w3.org/1999/xlink" width="47.015" height="51.114" viewBox="0 0 47.015 51.114">
  <defs>
    <clipPath id="clip-path">
      <rect id="Rectangle_586" data-name="Rectangle 586" width="47.015" height="51.114" transform="translate(0 0)" fill="none"/>
    </clipPath>
  </defs>
  <g id="Group_1394" data-name="Group 1394" transform="translate(0 0)">
    <g id="Group_1393" data-name="Group 1393" clip-path="url(#clip-path)">
      <path id="Path_950" data-name="Path 950" d="M8.7,40.956a11.987,11.987,0,0,1,3.422-3.279l-1.675-2.566A9.169,9.169,0,0,1,7.325,36.8a14.6,14.6,0,0,1-3.654.375H0V31.261H10.123l2.459-11.62H3.636V13.51H13.794L16.646,0H23.1L21.85,5.989a11.278,11.278,0,0,1-1.39,3.778,11.6,11.6,0,0,1-3.422,3.243l1.675,2.567a8.39,8.39,0,0,1,3.119-1.693,16.418,16.418,0,0,1,3.9-.375h5.846L34.432,0h6.452L39.708,5.989a14.8,14.8,0,0,1-.766,2.566,8.425,8.425,0,0,1-1.408,2.192A13.03,13.03,0,0,1,34.86,13.01l1.711,2.567a8.185,8.185,0,0,1,3.03-1.693,15.18,15.18,0,0,1,3.743-.375h3.671V19.64H36.821l-2.46,11.62h8.983v5.917h-10.2L30.226,51.115H23.775l1.39-6.381a11.814,11.814,0,0,1,1.426-3.814,11.589,11.589,0,0,1,3.422-3.243L28.3,35.111A9.077,9.077,0,0,1,25.147,36.8a15.966,15.966,0,0,1-3.867.374H15.434L12.44,51.115H5.988l1.319-6.381A11.27,11.27,0,0,1,8.7,40.956M30.369,19.64H19.034L16.575,31.261H27.91Z" fill="#fff"/>
    </g>
  </g>
</svg>
