<svg id="Layer_1" data-name="Layer 1" xmlns="http://www.w3.org/2000/svg" viewBox="0 0 1174.83 155.7"><defs><style>.cls-1{isolation:isolate;}.cls-2{fill:#fff;}</style></defs><g id="mylampedusa" class="cls-1"><g class="cls-1"><path class="cls-2" d="M-710.33,986.55a13.15,13.15,0,0,1,13.15-13.15A13.14,13.14,0,0,1-684,986.55v1c6.06-7.79,14-14.88,27.34-14.88,12.11,0,21.28,5.36,26.12,14.7,8.13-9.51,17.82-14.7,30.45-14.7,19.55,0,31.31,11.76,31.31,34.08v48.27A13.15,13.15,0,0,1-582,1068.21a13.14,13.14,0,0,1-13.14-13.15v-39.62c0-12.46-5.54-18.86-15.4-18.86s-15.92,6.4-15.92,18.86v39.62a13.15,13.15,0,0,1-13.15,13.15,13.14,13.14,0,0,1-13.14-13.15v-39.62c0-12.46-5.54-18.86-15.4-18.86S-684,1003-684,1015.44v39.62a13.15,13.15,0,0,1-13.15,13.15,13.15,13.15,0,0,1-13.15-13.15Z" transform="translate(710.33 -940.01)"/><path class="cls-2" d="M-542,1093c-3.81-1.39-8.31-4.5-8.31-10.9a10.49,10.49,0,0,1,10.38-10.73,12.57,12.57,0,0,1,4.33.69,17.25,17.25,0,0,0,5.53,1c4.67,0,6.92-.86,9.35-5.54l.86-2.07-31.66-73.36a19.2,19.2,0,0,1-1.38-6.05c0-7.44,5.71-12.63,13-12.63,6.58,0,10.38,3.63,12.63,9.86l20.07,54,19.38-53.81c2.07-5.53,5.88-10,12.63-10a12.22,12.22,0,0,1,12.45,12.11,19.82,19.82,0,0,1-1.21,6.23l-32.35,77.68c-7.79,18.85-15.57,25.95-31.31,25.95A39.67,39.67,0,0,1-542,1093Z" transform="translate(710.33 -940.01)"/></g><g class="cls-1"><path class="cls-2" d="M-441.14,946.76a6.73,6.73,0,0,1,6.58-6.75,6.76,6.76,0,0,1,6.75,6.75v114.53a6.51,6.51,0,0,1-6.58,6.74,6.65,6.65,0,0,1-6.75-6.74Z" transform="translate(710.33 -940.01)"/><path class="cls-2" d="M-403.6,1041.22v-.35c0-18.86,15.57-28.89,38.24-28.89a94.87,94.87,0,0,1,27.5,3.81v-3.12c0-16.09-9.86-24.39-26.64-24.39a55.85,55.85,0,0,0-23.18,5,6.73,6.73,0,0,1-2.42.52,5.91,5.91,0,0,1-5.89-5.7,6.11,6.11,0,0,1,3.64-5.54,70.46,70.46,0,0,1,29.24-6.06c12.63,0,22.31,3.29,28.89,9.87,6.05,6,9.17,14.7,9.17,26.12v49a6.32,6.32,0,0,1-6.4,6.57,6.15,6.15,0,0,1-6.41-6.23v-8.13c-6.22,8.13-16.6,15.4-32.35,15.4C-386.82,1069.07-403.6,1059.56-403.6,1041.22Zm65.92-6.92v-8.65a93.09,93.09,0,0,0-26.3-3.81c-16.78,0-26.12,7.27-26.12,18.51v.35c0,11.24,10.38,17.82,22.49,17.82C-351.18,1058.52-337.68,1048.48-337.68,1034.3Z" transform="translate(710.33 -940.01)"/><path class="cls-2" d="M-296.68,983.61a6.72,6.72,0,0,1,6.57-6.75,6.65,6.65,0,0,1,6.75,6.75v9.17c5.88-8.83,13.84-17,28.89-17,14.53,0,23.87,7.79,28.72,17.82,6.4-9.86,15.91-17.82,31.48-17.82,20.59,0,33.22,13.84,33.22,36v49.48a6.61,6.61,0,0,1-6.57,6.74,6.65,6.65,0,0,1-6.75-6.74v-46.37c0-17.3-8.65-27-23.18-27-13.5,0-24.57,10-24.57,27.68v45.68a6.65,6.65,0,0,1-6.75,6.74,6.61,6.61,0,0,1-6.57-6.74v-46.72c0-16.78-8.82-26.64-23-26.64s-24.91,11.77-24.91,28.2v45.16a6.51,6.51,0,0,1-6.58,6.74,6.64,6.64,0,0,1-6.74-6.74Z" transform="translate(710.33 -940.01)"/><path class="cls-2" d="M-132.16,983.61a6.61,6.61,0,0,1,6.57-6.75,6.65,6.65,0,0,1,6.75,6.75v12.11c7.26-10.73,17.82-19.9,34.25-19.9,21.46,0,42.74,17,42.74,46.37v.34c0,29.24-21.11,46.54-42.74,46.54-16.61,0-27.33-9-34.25-19V1089a6.51,6.51,0,0,1-6.58,6.74,6.64,6.64,0,0,1-6.74-6.74Zm76.64,39.1v-.35c0-21.11-14.53-34.6-31.49-34.6-16.61,0-32.35,14-32.35,34.43v.34c0,20.76,15.74,34.6,32.35,34.6C-69.71,1057.13-55.52,1044.33-55.52,1022.71Z" transform="translate(710.33 -940.01)"/><path class="cls-2" d="M21.81,1069.24c-24.57,0-44.64-18.85-44.64-46.53v-.35c0-25.78,18.17-46.54,42.9-46.54,26.47,0,41.53,21.63,41.53,45.33a6.21,6.21,0,0,1-6.23,6.23H-9.34c1.91,19.37,15.57,30.27,31.49,30.27,11.07,0,19.2-4.32,25.78-10.38a5.86,5.86,0,0,1,3.8-1.55,5.65,5.65,0,0,1,3.81,10C47.06,1063.88,37,1069.24,21.81,1069.24Zm26.46-51.72c-1.38-16.27-10.72-30.45-28.54-30.45-15.57,0-27.34,13-29.07,30.45Z" transform="translate(710.33 -940.01)"/><path class="cls-2" d="M170.24,1061.29a6.66,6.66,0,1,1-13.32,0v-12.11c-7.27,10.72-17.82,19.89-34.26,19.89-21.45,0-42.73-17-42.73-46.36v-.35c0-29.24,21.28-46.54,42.73-46.54,16.61,0,27.34,9,34.26,19V946.76a6.51,6.51,0,0,1,6.57-6.75,6.65,6.65,0,0,1,6.75,6.75Zm-76.64-39.1v.34c0,21.11,14.7,34.6,31.49,34.6,16.6,0,32.35-14,32.35-34.6v-.34c0-20.59-15.75-34.43-32.35-34.43C107.79,987.76,93.6,1000.56,93.6,1022.19Z" transform="translate(710.33 -940.01)"/><path class="cls-2" d="M276.63,1061.29a6.58,6.58,0,1,1-13.15,0v-9.69c-6.05,9.69-15.22,17.47-30.62,17.47-21.62,0-34.25-14.53-34.25-35.81V983.61a6.51,6.51,0,0,1,6.57-6.75,6.76,6.76,0,0,1,6.75,6.75V1030c0,16.61,9,27,24.74,27,15.22,0,26.81-11.24,26.81-28V983.61a6.51,6.51,0,0,1,6.58-6.75,6.61,6.61,0,0,1,6.57,6.75Z" transform="translate(710.33 -940.01)"/><path class="cls-2" d="M301.71,1057.65a6,6,0,0,1-2.42-4.84,5.8,5.8,0,0,1,5.88-5.71,5.34,5.34,0,0,1,3.29,1c9.17,6.23,18.69,9.51,28.37,9.51,10.73,0,18.51-5.53,18.51-14.18v-.35c0-9-10.55-12.46-22.31-15.74-14-4-29.59-8.83-29.59-25.26v-.35c0-15.39,12.81-25.6,30.45-25.6a62.32,62.32,0,0,1,28.55,7.61,6.47,6.47,0,0,1,3.29,5.54,5.81,5.81,0,0,1-5.89,5.71,6.62,6.62,0,0,1-2.94-.7c-7.61-4.32-15.74-6.92-23.35-6.92-10.56,0-17.3,5.54-17.3,13v.34c0,8.48,11.07,11.77,23,15.4,13.84,4.15,28.71,9.52,28.71,25.61v.34c0,17-14,26.82-31.83,26.82A61.92,61.92,0,0,1,301.71,1057.65Z" transform="translate(710.33 -940.01)"/><path class="cls-2" d="M386,1041.22v-.35C386,1022,401.53,1012,424.2,1012a94.87,94.87,0,0,1,27.5,3.81v-3.12c0-16.09-9.86-24.39-26.64-24.39a55.85,55.85,0,0,0-23.18,5,6.73,6.73,0,0,1-2.42.52,5.91,5.91,0,0,1-5.89-5.7,6.11,6.11,0,0,1,3.64-5.54,70.46,70.46,0,0,1,29.24-6.06c12.62,0,22.31,3.29,28.89,9.87,6.05,6,9.17,14.7,9.17,26.12v49a6.33,6.33,0,0,1-6.41,6.57,6.14,6.14,0,0,1-6.4-6.23v-8.13c-6.22,8.13-16.6,15.4-32.35,15.4C402.74,1069.07,386,1059.56,386,1041.22Zm65.92-6.92v-8.65a93.09,93.09,0,0,0-26.3-3.81c-16.78,0-26.12,7.27-26.12,18.51v.35c0,11.24,10.38,17.82,22.49,17.82C438.38,1058.52,451.88,1048.48,451.88,1034.3Z" transform="translate(710.33 -940.01)"/></g></g></svg>